<?xml version="1.0" standalone="no"?><!DOCTYPE svg PUBLIC "-//W3C//DTD SVG 1.1//EN" "http://www.w3.org/Graphics/SVG/1.1/DTD/svg11.dtd">
<svg t="1646792110406" class="icon" viewBox="0 0 1024 1024" version="1.1" xmlns="http://www.w3.org/2000/svg" p-id="1716"
     width="200" height="200"><defs><style type="text/css"></style></defs><path d="M928.627 494.597c-16.118-25.79-38.235-46.304-65.731-60.968-32.939-17.567-73.412-26.474-120.3-26.474h-62.441L431.333 158.577a29.137 29.137 0 0 0-20.595-8.525h-110.62a29.141 29.141 0 0 0-25.29 43.62l122.229 213.483H282.974l-66.42-166.047a29.142 29.142 0 0 0-27.057-18.319h-73.751a29.137 29.137 0 0 0-29.141 29.143l0.006 331.858c0 56.732 46.155 102.887 102.888 102.887h110.624c16.093 0 29.14-13.047 29.14-29.141s-13.047-29.141-29.14-29.141H189.499c-24.596 0-44.605-20.01-44.605-44.605l-0.006-302.718h24.881l66.42 166.047a29.142 29.142 0 0 0 27.057 18.319H442.25a29.11 29.11 0 0 0 10.757 0h209.254c2.166 0.5 4.377 0.757 6.588 0.757 2.211 0 4.422-0.257 6.588-0.757h67.16c64.64 0 110.184 19.55 135.367 58.108 18.83 28.83 19.82 58.935 19.857 60.39-0.078 24.53-20.059 44.459-44.605 44.459h-110.62c-16.094 0-29.141 13.047-29.141 29.141s13.047 29.141 29.141 29.141h110.619c56.732 0 102.887-46.155 102.887-102.887 0-4.63-0.772-46.466-27.476-89.193zM350.382 208.334h48.293l199.016 198.82H464.216l-113.834-198.82z" p-id="1717" fill="#cdcdcd"></path><path d="M668.85 555.114H447.61a29.141 29.141 0 0 0-25.284 14.652L274.833 827.18a29.141 29.141 0 0 0 25.284 43.63h110.62c7.715 0 15.115-3.06 20.578-8.507L689.427 604.89a29.14 29.14 0 0 0 6.352-31.768 29.138 29.138 0 0 0-26.929-18.008zM398.69 812.526H350.4l114.1-199.13H598.36L398.69 812.525z" p-id="1718" fill="#cdcdcd"></path></svg>
