<?xml version="1.0" standalone="no"?><!DOCTYPE svg PUBLIC "-//W3C//DTD SVG 1.1//EN" "http://www.w3.org/Graphics/SVG/1.1/DTD/svg11.dtd">
<svg t="1639018556314" class="icon" viewBox="0 0 1024 1024" version="1.1" xmlns="http://www.w3.org/2000/svg" p-id="2319"
     width="200" height="200"><defs><style type="text/css"></style></defs><path d="M729.6 710.4c0-25.6-6.4-44.8-6.4-57.6 19.2-121.6 19.2-121.6-108.8-121.6-25.6 0-57.6-6.4-76.8 25.6 0 6.4-32 0-32 0-12.8-38.4-38.4-32-57.6-32-32 0-57.6-6.4-89.6 0-25.6 6.4-44.8 32-70.4 32-25.6 0-44.8-19.2-70.4-32H192c-51.2 0-51.2 0-44.8 51.2 6.4 32 19.2 76.8-32 83.2-44.8 6.4-44.8-44.8-44.8-70.4-32-230.4 57.6-409.6 249.6-512 179.2-89.6 403.2-44.8 537.6 89.6 166.4 166.4 179.2 486.4 32 652.8-134.4 153.6-384 185.6-544 64-25.6-19.2-38.4-19.2-57.6 6.4-25.6 25.6-51.2 38.4-83.2 70.4-6.4-25.6-6.4-44.8-6.4-57.6v-249.6c0-32 12.8-38.4 38.4-38.4h268.8c12.8 0 19.2 6.4 32 12.8-6.4 6.4-6.4 12.8-12.8 25.6s-19.2 19.2-32 32c-38.4 38.4-38.4 44.8 12.8 70.4 76.8 38.4 160 44.8 243.2 19.2 102.4-32 153.6-102.4 166.4-204.8 0-12.8-12.8-25.6-25.6-32h-6.4c-89.6-6.4-83.2-6.4-102.4 76.8-6.4 25.6 0 64-51.2 96z m147.2 57.6c-6.4 0-6.4-6.4-12.8-6.4-32 19.2-64 32-102.4 51.2-128 51.2-243.2 25.6-345.6-51.2-25.6-19.2-32-38.4-6.4-64 12.8-6.4 19.2-19.2 32-38.4H256c-6.4 0-19.2 12.8-19.2 19.2v185.6c19.2-19.2 32-25.6 38.4-32 25.6-25.6 44.8-25.6 70.4 0 121.6 108.8 307.2 121.6 441.6 25.6 38.4-32 64-64 89.6-89.6zM409.6 480h32c57.6 0 57.6 0 57.6-57.6v-57.6c6.4-44.8-6.4-64-51.2-70.4-108.8-19.2-108.8-19.2-121.6 89.6-19.2 115.2-19.2 96 83.2 96z m236.8 0h44.8c38.4 0 51.2-12.8 44.8-51.2-6.4-25.6-6.4-57.6-12.8-83.2-12.8-76.8-12.8-76.8-89.6-64-83.2 25.6-83.2 25.6-83.2 108.8 0 102.4-12.8 89.6 96 89.6z m211.2 0c19.2-6.4 64 19.2 57.6-38.4-12.8-76.8-38.4-147.2-89.6-204.8-6.4-12.8-32-12.8-44.8-12.8-25.6 6.4-25.6 25.6-19.2 44.8 12.8 44.8 19.2 96 25.6 140.8 0 64-6.4 70.4 70.4 70.4zM198.4 473.6c64 0 64 0 70.4-64 12.8-44.8 25.6-89.6 25.6-134.4 0-12.8-6.4-38.4-19.2-44.8-12.8-6.4-38.4 0-44.8 12.8-32 51.2-64 108.8-83.2 166.4-19.2 64-12.8 64 51.2 64z m307.2-288c0-6.4 0-6.4 0 0-6.4-12.8 0-19.2-6.4-32 0-12.8-6.4-25.6-12.8-44.8-12.8 12.8-32 12.8-44.8 19.2-19.2 19.2-38.4 44.8-51.2 64-6.4 12.8 0 38.4 6.4 38.4 32 6.4 64 19.2 89.6 12.8 12.8 0 12.8-38.4 19.2-57.6z m44.8-6.4v32c0 32 12.8 44.8 38.4 32 25.6-6.4 51.2-19.2 76.8-32-6.4-19.2-19.2-44.8-38.4-64-12.8-12.8-44.8-19.2-64-32-6.4 19.2-6.4 38.4-12.8 64z" p-id="2320" fill="#bfbfbf"></path></svg>
