<?xml version="1.0" standalone="no"?><!DOCTYPE svg PUBLIC "-//W3C//DTD SVG 1.1//EN" "http://www.w3.org/Graphics/SVG/1.1/DTD/svg11.dtd">
<svg t="1646792793566" class="icon" viewBox="0 0 1024 1024" version="1.1" xmlns="http://www.w3.org/2000/svg" p-id="7312"
     width="200" height="200"><defs><style type="text/css"></style></defs><path d="M960 640a21.333333 21.333333 0 0 1 21.333333 21.333333v298.666667a21.333333 21.333333 0 0 1-17.493333 20.992L960 981.333333h-298.666667a21.333333 21.333333 0 0 1-21.333333-21.333333v-42.666667a21.333333 21.333333 0 0 1 21.333333-21.333333H896v-234.666667a21.333333 21.333333 0 0 1 21.333333-21.333333h42.666667z m-853.333333 0a21.333333 21.333333 0 0 1 21.333333 21.333333V896h234.666667a21.333333 21.333333 0 0 1 21.333333 21.333333v42.666667a21.333333 21.333333 0 0 1-21.333333 21.333333h-298.666667a21.333333 21.333333 0 0 1-21.333333-21.333333v-298.666667a21.333333 21.333333 0 0 1 21.333333-21.333333h42.666667z m597.333333 0a21.333333 21.333333 0 0 1 21.333333 21.333333v42.666667a21.333333 21.333333 0 0 1-21.333333 21.333333h-384a21.333333 21.333333 0 0 1-21.333333-21.333333v-42.666667a21.333333 21.333333 0 0 1 21.333333-21.333333h384z m-213.333333-170.666667a21.333333 21.333333 0 0 1 21.333333 21.333334v42.666666a21.333333 21.333333 0 0 1-21.333333 21.333334h-170.666667a21.333333 21.333333 0 0 1-21.333333-21.333334v-42.666666a21.333333 21.333333 0 0 1 21.333333-21.333334h170.666667z m213.333333-170.666666a21.333333 21.333333 0 0 1 21.333333 21.333333v42.666667a21.333333 21.333333 0 0 1-21.333333 21.333333h-384a21.333333 21.333333 0 0 1-21.333333-21.333333v-42.666667a21.333333 21.333333 0 0 1 21.333333-21.333333h384z m-341.333333-256a21.333333 21.333333 0 0 1 21.333333 21.333333v42.666667a21.333333 21.333333 0 0 1-21.333333 21.333333H128v234.666667a21.333333 21.333333 0 0 1-21.333333 21.333333h-42.666667a21.333333 21.333333 0 0 1-21.333333-21.333333v-298.666667a21.333333 21.333333 0 0 1 21.333333-21.333333h298.666667z m597.333333 0a21.333333 21.333333 0 0 1 21.333333 21.333333v298.666667a21.333333 21.333333 0 0 1-21.333333 21.333333h-42.666667a21.333333 21.333333 0 0 1-21.333333-21.333333V128h-234.666667a21.333333 21.333333 0 0 1-21.333333-21.333333v-42.666667a21.333333 21.333333 0 0 1 21.333333-21.333333h298.666667z" p-id="7313" fill="#cdcdcd"></path></svg>
