<?xml version="1.0" standalone="no"?><!DOCTYPE svg PUBLIC "-//W3C//DTD SVG 1.1//EN" "http://www.w3.org/Graphics/SVG/1.1/DTD/svg11.dtd">
<svg t="1646792490742" class="icon" viewBox="0 0 1025 1024" version="1.1" xmlns="http://www.w3.org/2000/svg" p-id="4464"
     width="200.1953125" height="200"><defs><style type="text/css"></style></defs><path d="M511.452852 1022.701902c-68.998927 0-136.100634-13.580107-199.008483-40.241054-60.910775-25.762262-115.630619-62.608289-162.561873-109.539541-46.931253-46.931253-83.877133-101.551243-109.639395-162.462019C13.582155 647.451585 0.002048 580.549586 0.002048 511.550658c0-68.899074 13.580107-135.900926 40.241053-198.90863 25.762262-60.810922 62.708142-115.430912 109.639395-162.462018 46.931253-46.931253 101.651097-83.777279 162.561873-109.539542C375.551926 14.079376 442.453925 0.499269 511.452852 0.499269c68.998927 0 136.100634 13.580107 199.008484 40.241053 60.910775 25.762262 115.630619 62.608289 162.561872 109.539541 46.931253 46.931253 83.877133 101.551243 109.539542 162.462019 26.660946 63.007704 40.241053 130.009556 40.241053 198.90863s-13.580107 135.900926-40.241053 198.90863c-25.762262 60.810922-62.708142 115.430912-109.539542 162.462018-46.931253 46.931253-101.651097 83.777279-162.561872 109.539542-62.90785 26.561092-130.009556 40.141199-199.008484 40.1412z m0-978.266992c-257.922184 0-467.615017 209.592979-467.615017 467.315456s209.792686 467.315456 467.615017 467.315456c257.922184 0 467.714871-209.592979 467.714871-467.315456-0.099854-257.722477-209.792686-467.315456-467.714871-467.315456z m0 0" fill="#cdcdcd" p-id="4465"></path><path d="M529.126962 905.373769c-59.612677 0-118.226816-17.274695-169.551633-49.926865-49.427596-31.453925-91.166455-76.587811-120.823013-130.408971l38.343832-21.069137c54.320429 98.755339 148.482496 157.669039 252.130668 157.669039 104.846416 0 202.802925-62.90785 255.625549-164.259385l38.843101 20.170453c-29.157289 55.918089-71.195709 102.849342-121.52199 135.801073-52.123647 33.950268-111.936031 52.023793-173.046514 52.023793z m0 0" fill="#cdcdcd" p-id="4466"></path><path d="M180.937006 777.760702L353.883667 692.785178l-143.589664-24.564018-29.356997 109.539542z m662.329791 0L670.41999 692.785178l143.589664-24.564018 29.257143 109.539542zM509.25607 394.422233h43.735934v469.512238h-43.735934V394.422233z m0 0" fill="#cdcdcd" p-id="4467"></path><path d="M535.917016 405.206436c-60.012092 0-108.840566-39.941492-108.840565-89.169381 0-49.128035 48.828474-89.169381 108.840565-89.169381s108.840566 39.941492 108.840566 89.169381-48.72862 89.169381-108.840566 89.169381z m0-156.470795c-47.92979 0-86.972599 30.155826-86.972599 67.301414s39.042808 67.301414 86.972599 67.301414 86.972599-30.155826 86.972599-67.301414-39.042808-67.301414-86.972599-67.301414zM389.032179 450.739737h293.66982v43.735933H389.032179v-43.735933z m0 0" fill="#cdcdcd" p-id="4468"></path></svg>
