<?xml version="1.0" standalone="no"?><!DOCTYPE svg PUBLIC "-//W3C//DTD SVG 1.1//EN" "http://www.w3.org/Graphics/SVG/1.1/DTD/svg11.dtd">
<svg t="1646792426012" class="icon" viewBox="0 0 1024 1024" version="1.1" xmlns="http://www.w3.org/2000/svg" p-id="3869"
     width="200" height="200"><defs><style type="text/css"></style></defs><path d="M288 511.936h-64a32 32 0 0 0 0 64h64a32 32 0 0 0 0-64zM832 511.936h-64a32 32 0 0 0 0 64h64a32 32 0 0 0 0-64zM832 639.936h-192a32 32 0 0 0 0 64h192a32 32 0 0 0 0-64z" fill="#cdcdcd" p-id="3870"></path><path d="M96 383.936h313.28l37.76-64H96a64 64 0 0 0-64 64v448a64 64 0 0 0 64 64h166.4l6.336-64H96v-448zM928 319.936h-108.608l-37.76 64H928v448H439.552l-91.52 64H928a64 64 0 0 0 64-64v-448a64 64 0 0 0-64-64z" fill="#cdcdcd" p-id="3871"></path><path d="M532.544 692.416l0.448-0.384-0.192-0.064 258.176-437.568a62.464 62.464 0 0 0-23.552-86.336l-55.872-31.552a65.408 65.408 0 0 0-88.192 23.168L364.864 597.696l0.256 0.128-45.248 265.792 212.672-171.2z m146.688-501.12l55.872 31.552-258.112 437.504-56-31.616 258.24-437.44z" fill="#cdcdcd" p-id="3872"></path></svg>
