<?xml version="1.0" standalone="no"?><!DOCTYPE svg PUBLIC "-//W3C//DTD SVG 1.1//EN" "http://www.w3.org/Graphics/SVG/1.1/DTD/svg11.dtd">
<svg t="1646792551484" class="icon" viewBox="0 0 1024 1024" version="1.1" xmlns="http://www.w3.org/2000/svg" p-id="4749"
     width="200" height="200"><defs><style type="text/css"></style></defs><path d="M870.4 962.133333H155.733333c-51.2 0-91.733333-40.533333-91.733333-91.733333V155.733333C64 104.533333 104.533333 64 155.733333 64h714.666667c51.2 0 91.733333 40.533333 91.733333 91.733333v714.666667c0 49.066667-42.666667 91.733333-91.733333 91.733333zM155.733333 108.8c-25.6 0-46.933333 21.333333-46.933333 46.933333v714.666667c0 25.6 21.333333 46.933333 46.933333 46.933333h714.666667c25.6 0 46.933333-21.333333 46.933333-46.933333V155.733333c0-25.6-21.333333-46.933333-46.933333-46.933333H155.733333z" p-id="4750" fill="#cdcdcd"></path><path d="M748.8 416h-512c-12.8 0-21.333333-8.533333-21.333333-21.333333s8.533333-21.333333 21.333333-21.333334h512c12.8 0 21.333333 8.533333 21.333333 21.333334s-8.533333 21.333333-21.333333 21.333333z" p-id="4751" fill="#cdcdcd"></path><path d="M706.133333 458.666667c-8.533333 0-17.066667-4.266667-19.2-12.8-4.266667-10.666667 0-23.466667 12.8-27.733334l57.6-23.466666-57.6-23.466667c-10.666667-4.266667-17.066667-17.066667-12.8-27.733333s17.066667-17.066667 27.733334-12.8l85.333333 34.133333c12.8 4.266667 19.2 14.933333 19.2 27.733333s-8.533333 23.466667-19.2 27.733334l-85.333333 34.133333c-4.266667 4.266667-6.4 4.266667-8.533334 4.266667z m76.8-53.333334zM789.333333 652.8H277.333333c-12.8 0-21.333333-8.533333-21.333333-21.333333s8.533333-21.333333 21.333333-21.333334h512c12.8 0 21.333333 8.533333 21.333334 21.333334s-10.666667 21.333333-21.333334 21.333333z" p-id="4752" fill="#cdcdcd"></path><path d="M320 695.466667c-2.133333 0-4.266667 0-8.533333-2.133334l-85.333334-34.133333c-12.8-4.266667-19.2-14.933333-19.2-27.733333 0-12.8 8.533333-23.466667 19.2-27.733334l85.333334-34.133333c10.666667-4.266667 23.466667 0 27.733333 12.8 4.266667 10.666667 0 23.466667-12.8 27.733333l-57.6 23.466667 57.6 23.466667c10.666667 4.266667 17.066667 17.066667 12.8 27.733333-4.266667 4.266667-12.8 10.666667-19.2 10.666667z m-76.8-74.666667z" p-id="4753" fill="#cdcdcd"></path></svg>
