<?xml version="1.0" standalone="no"?><!DOCTYPE svg PUBLIC "-//W3C//DTD SVG 1.1//EN" "http://www.w3.org/Graphics/SVG/1.1/DTD/svg11.dtd">
<svg t="1650610670538" class="icon" viewBox="0 0 1024 1024" version="1.1" xmlns="http://www.w3.org/2000/svg" p-id="2074"
     width="200" height="200"><defs><style type="text/css"></style></defs><path d="M729.6 725.333333L682.666667 678.4l59.733333-59.733333 149.333333 149.333333-149.333333 149.333333-59.733333-59.733333 46.933333-46.933333H554.666667v-85.333334h174.933333z m-166.4-128l-51.2-12.8v34.133334h-38.4l-25.6-21.333334V320h256V554.666667h-72.533333l72.533333 21.333333v21.333333h-140.8zM512 640v64h-64l-42.666667-38.4-38.4 38.4-46.933333-46.933333 42.666667-42.666667v-157.866667H315.733333V392.533333H426.666667V597.333333l46.933333 38.4h38.4z m298.666667-42.666667h-85.333334V298.666667H298.666667v426.666666h213.333333v85.333334H213.333333V213.333333h597.333334v384z m-170.666667-213.333333h-128v21.333333h128V384z m0 85.333333h-128v21.333334h128V469.333333zM328.533333 345.6L375.466667 298.666667l46.933333 46.933333-46.933333 46.933333-46.933334-46.933333z" fill="#bfbfbf" p-id="2075"></path></svg>
